<?xml version="1.0" encoding="utf-8"?>
<!-- Generator: Adobe Illustrator 26.3.1, SVG Export Plug-In . SVG Version: 6.00 Build 0)  -->
<svg version="1.1" id="Layer_1" xmlns="http://www.w3.org/2000/svg" xmlns:xlink="http://www.w3.org/1999/xlink" x="0px" y="0px"
	 viewBox="0 0 40 40" style="enable-background:new 0 0 40 40;" xml:space="preserve">
<style type="text/css">
	.st0{fill:none;stroke:#1A68FF;stroke-width:1.5;}
	.st1{fill-rule:evenodd;clip-rule:evenodd;fill:#1A68FF;}
</style>
<circle class="st0" cx="20" cy="20" r="19.2"/>
<g id="Layer_x0020_1">
	<path class="st1" d="M22.4,12.6c0.6,0.4,0.6,1.3,0.1,1.7c-0.5,0.4-1.4,0.3-1.7-0.4c-0.2-0.5,0-1.1,0.3-1.4
		C21.4,12.3,21.9,12.2,22.4,12.6C22.4,12.5,22.4,12.6,22.4,12.6z M22.9,22.4c1.1-0.8,3.1-2.2,4.1-2.9c0.2-0.1,0.4-0.3,0.6-0.4v2.5
		c0,2.1,0,3.5,0.1,4.3c0,1-0.4,1.5-1.3,1.5c-1.5,0-6.1,0-7.6,0l0,0c-1.5,0-3.6,0-5.1,0c-0.9,0-1.3-0.4-1.3-1.5
		c0-1.1,0.1-3.2,0.1-6.8c0.4,0.1,4.5,3.1,5.4,3.7c0.9,0.7,1.6,1,2.3,1c0.6,0,1.3-0.4,2.1-1C22.4,22.7,22.6,22.5,22.9,22.4L22.9,22.4
		z M19.4,12.6c0.5,0.5,0.5,1.5-0.2,1.9c-1,0.4-1.9-0.5-1.5-1.5C18,12.3,18.8,12.1,19.4,12.6L19.4,12.6z M15.7,11c0,2.9,0,4.3,0,5
		c0,0.9,0.5,0.6,1.5,0.7c0.2,0.4,0.7,1.1,1,1.4l0.9-1.4c1.6,0,3.2,0,4.8,0c0.6,0,0.8-0.2,0.8-0.7c0-0.9,0-2.2,0-5
		c0-0.7-0.1-0.9-0.9-0.9h-7.3C15.8,10.1,15.7,10.3,15.7,11L15.7,11L15.7,11z M12.4,18c0.7,0.5,2.3,1.7,3.9,2.8
		c0.8,0.5,1.5,1,2.1,1.4c1.6,1,2,0.9,3.4-0.1c0.8-0.6,1.6-1.1,2.1-1.5c1.2-0.9,2.4-1.7,3.6-2.6c0-2.1,0.1-2.7-2.1-2.7
		c0,0.5,0,0.9,0,1.1c-0.1,0.7-0.4,1-1.1,1.1c-0.3,0-0.6,0-0.9,0c-0.9,0-2.2,0-4,0c-0.3,0.5-0.6,0.9-0.8,1.2
		c-0.3,0.5-0.8,0.5-1.2-0.1c-0.2-0.3-0.4-0.6-0.7-1.1c-0.4,0-0.7,0-1,0c-0.5,0-0.9-0.5-0.9-1c0-0.3,0-0.7,0-1.2
		C12.4,15.3,12.4,15.6,12.4,18L12.4,18L12.4,18z"/>
</g>
</svg>
