<?xml version="1.0" encoding="utf-8"?>
<!-- Generator: Adobe Illustrator 26.3.1, SVG Export Plug-In . SVG Version: 6.00 Build 0)  -->
<svg version="1.1" id="Layer_1" xmlns="http://www.w3.org/2000/svg" xmlns:xlink="http://www.w3.org/1999/xlink" x="0px" y="0px"
	 viewBox="0 0 40 40" style="enable-background:new 0 0 40 40;" xml:space="preserve">
<style type="text/css">
	.st0{fill:none;stroke:#1A68FF;stroke-width:1.5;}
	.st1{fill-rule:evenodd;clip-rule:evenodd;fill:#1A68FF;}
</style>
<circle class="st0" cx="20" cy="20" r="19.2"/>
<g id="Layer_x0020_1">
	<path class="st1" d="M21,17.6l0-1.8l-3.8,0l0,12.5h3.9c0-2,0-3.9,0-5.9c0-1.6,0.1-3.7,2.1-3.7c2,0,2,1.8,2,3.7c0,2,0,3.9,0,5.9h3.9
		v-8c0-0.6-0.1-1.7-0.9-2.9c-1.2-1.8-3.3-2.4-5.1-1.7C21.8,16.2,21.3,17.1,21,17.6L21,17.6z M13.1,9.8c1.2,0,2.2,1,2.2,2.2
		s-1,2.2-2.2,2.2s-2.2-1-2.2-2.2S11.9,9.8,13.1,9.8z M11.1,28.3H15l0-12.6l-3.9,0L11.1,28.3L11.1,28.3z"/>
</g>
</svg>
