<svg width="60" height="60" viewBox="0 0 60 60" fill="none" xmlns="http://www.w3.org/2000/svg">
<circle cx="30" cy="30" r="30" fill="#FFEDE5"/>
<path d="M25 26H22C20.9 26 20 25.1 20 24V22C20 20.9 20.9 20 22 20H25C26.1 20 27 20.9 27 22V24C27 25.1 26.1 26 25 26Z" stroke="#FC5D20" stroke-width="1.5" stroke-linecap="round" stroke-linejoin="round"/>
<path d="M38.8 25H35.2C34.54 25 34 24.46 34 23.8V22.2C34 21.54 34.54 21 35.2 21H38.8C39.46 21 40 21.54 40 22.2V23.8C40 24.46 39.46 25 38.8 25Z" stroke="#FC5D20" stroke-width="1.5" stroke-linecap="round" stroke-linejoin="round"/>
<path d="M38.8 32.5H35.2C34.54 32.5 34 31.96 34 31.3V29.7C34 29.04 34.54 28.5 35.2 28.5H38.8C39.46 28.5 40 29.04 40 29.7V31.3C40 31.96 39.46 32.5 38.8 32.5Z" stroke="#FC5D20" stroke-width="1.5" stroke-linecap="round" stroke-linejoin="round"/>
<path d="M27 23H34" stroke="#FC5D20" stroke-width="1.5" stroke-miterlimit="10" stroke-linecap="round" stroke-linejoin="round"/>
<path d="M30.5 23V36C30.5 37.1 31.4 38 32.5 38H34" stroke="#FC5D20" stroke-width="1.5" stroke-miterlimit="10" stroke-linecap="round" stroke-linejoin="round"/>
<path d="M30.5 30.5H34" stroke="#FC5D20" stroke-width="1.5" stroke-miterlimit="10" stroke-linecap="round" stroke-linejoin="round"/>
<path d="M38.8 40H35.2C34.54 40 34 39.46 34 38.8V37.2C34 36.54 34.54 36 35.2 36H38.8C39.46 36 40 36.54 40 37.2V38.8C40 39.46 39.46 40 38.8 40Z" stroke="#FC5D20" stroke-width="1.5" stroke-linecap="round" stroke-linejoin="round"/>
</svg>
