<?xml version="1.0" encoding="utf-8"?>
<!-- Generator: Adobe Illustrator 26.3.1, SVG Export Plug-In . SVG Version: 6.00 Build 0)  -->
<svg version="1.1" id="Layer_1" xmlns:xodm="http://www.corel.com/coreldraw/odm/2003"
	 xmlns="http://www.w3.org/2000/svg" xmlns:xlink="http://www.w3.org/1999/xlink" x="0px" y="0px" viewBox="0 0 209 209"
	 style="enable-background:new 0 0 209 209;" xml:space="preserve">
<style type="text/css">
	.st0{fill-rule:evenodd;clip-rule:evenodd;fill:#F0E9FF;}
	.st1{fill-rule:evenodd;clip-rule:evenodd;fill:#7135ED;}
</style>
<circle class="st0" cx="104.5" cy="104.5" r="104.5"/>
<g id="Layer_x0020_1">
	<path class="st1" d="M106.5,95c-1.6,11.4-12.6,19.4-24.3,17.6c-10.3-1.6-19.5-12-17.3-24.4C66.6,78,76.3,68.9,89,70.9
		C99.2,72.5,108.3,82.1,106.5,95L106.5,95z M95.1,88.1v3.3l3.8-3.9c0.2-0.2,0.3-0.3,0.5-0.4c0.1-0.1,0.3-0.1,0.5-0.1
		c0.3,0,0.5,0.1,0.7,0.2c0.2,0.2,0.3,0.4,0.3,0.6c0,0.3-0.1,0.6-0.4,0.8L98,90.8l2.7,3.8c0.2,0.3,0.3,0.5,0.4,0.7
		c0.1,0.2,0.1,0.4,0.1,0.6c0,0.2-0.1,0.4-0.2,0.5c-0.2,0.2-0.4,0.2-0.7,0.2c-0.3,0-0.5-0.1-0.7-0.2c-0.2-0.1-0.3-0.3-0.4-0.5
		c-0.1-0.2-0.2-0.4-0.3-0.5l-2.3-3.5l-1.6,1.5v2c0,0.4-0.1,0.7-0.3,0.9c-0.2,0.2-0.4,0.3-0.7,0.3c-0.2,0-0.3,0-0.5-0.1
		s-0.3-0.2-0.3-0.3c-0.1-0.1-0.1-0.3-0.1-0.4c0-0.2,0-0.4,0-0.7v-7c0-0.4,0.1-0.7,0.3-0.9c0.2-0.2,0.4-0.3,0.7-0.3
		c0.3,0,0.5,0.1,0.7,0.3C95.1,87.4,95.2,87.7,95.1,88.1L95.1,88.1z M73.3,92.5h-0.7v3c0,0.4-0.1,0.7-0.3,0.9
		c-0.2,0.2-0.4,0.3-0.7,0.3c-0.3,0-0.5-0.1-0.7-0.3c-0.2-0.2-0.3-0.5-0.3-0.9v-7.3c0-0.4,0.1-0.7,0.3-0.9c0.2-0.2,0.5-0.3,0.9-0.3
		H75c0.4,0,0.8,0,1.1,0.1c0.3,0,0.6,0.1,0.8,0.2c0.3,0.1,0.6,0.3,0.8,0.5c0.2,0.2,0.4,0.5,0.5,0.8c0.1,0.3,0.2,0.6,0.2,1
		c0,0.7-0.2,1.3-0.6,1.7s-1,0.7-1.8,0.9c0.3,0.2,0.7,0.4,1,0.8c0.3,0.4,0.6,0.7,0.8,1.1c0.2,0.4,0.4,0.8,0.6,1.1
		c0.1,0.3,0.2,0.5,0.2,0.7c0,0.1,0,0.2-0.1,0.4c-0.1,0.1-0.2,0.2-0.3,0.3c-0.1,0.1-0.3,0.1-0.5,0.1c-0.2,0-0.4-0.1-0.5-0.2
		c-0.1-0.1-0.3-0.2-0.4-0.4c-0.1-0.2-0.2-0.4-0.4-0.7l-0.8-1.3c-0.3-0.5-0.5-0.8-0.7-1.1c-0.2-0.2-0.4-0.4-0.7-0.5
		C74,92.5,73.7,92.5,73.3,92.5L73.3,92.5z M74.4,88.5h-1.8v2.6h1.7c0.5,0,0.8,0,1.2-0.1c0.3-0.1,0.6-0.2,0.7-0.4
		c0.2-0.2,0.2-0.5,0.2-0.8c0-0.3-0.1-0.5-0.2-0.7c-0.1-0.2-0.3-0.4-0.6-0.4C75.5,88.6,75.1,88.5,74.4,88.5L74.4,88.5z M80.3,95.5
		v-7.5c0-0.4,0.1-0.7,0.3-0.9c0.2-0.2,0.4-0.3,0.7-0.3c0.3,0,0.5,0.1,0.7,0.3c0.2,0.2,0.3,0.5,0.3,0.9v7.5c0,0.4-0.1,0.7-0.3,0.9
		c-0.2,0.2-0.4,0.3-0.7,0.3c-0.3,0-0.5-0.1-0.7-0.3C80.4,96.2,80.3,95.9,80.3,95.5L80.3,95.5z M91.6,93.7c0,0.6-0.1,1.1-0.4,1.5
		c-0.3,0.5-0.7,0.8-1.3,1.1c-0.6,0.3-1.2,0.4-2,0.4c-0.9,0-1.7-0.2-2.3-0.5c-0.4-0.3-0.8-0.6-1-1c-0.3-0.4-0.4-0.8-0.4-1.2
		c0-0.2,0.1-0.4,0.2-0.6c0.2-0.2,0.4-0.2,0.6-0.2c0.2,0,0.4,0.1,0.5,0.2c0.1,0.1,0.3,0.3,0.4,0.6c0.1,0.3,0.3,0.6,0.4,0.8
		c0.1,0.2,0.3,0.4,0.6,0.5s0.6,0.2,1,0.2c0.6,0,1-0.1,1.4-0.4c0.4-0.3,0.5-0.6,0.5-1c0-0.3-0.1-0.6-0.3-0.8
		c-0.2-0.2-0.4-0.3-0.7-0.4c-0.3-0.1-0.7-0.2-1.2-0.3c-0.7-0.2-1.3-0.3-1.7-0.6c-0.5-0.2-0.8-0.5-1.1-0.9c-0.3-0.4-0.4-0.8-0.4-1.4
		c0-0.5,0.1-1,0.4-1.4c0.3-0.4,0.7-0.7,1.2-0.9c0.5-0.2,1.2-0.3,1.9-0.3c0.6,0,1.1,0.1,1.5,0.2s0.8,0.3,1.1,0.6s0.5,0.5,0.6,0.8
		c0.1,0.3,0.2,0.5,0.2,0.8c0,0.2-0.1,0.4-0.2,0.6c-0.2,0.2-0.4,0.3-0.6,0.3c-0.2,0-0.4-0.1-0.5-0.2c-0.1-0.1-0.2-0.3-0.4-0.5
		c-0.2-0.4-0.4-0.6-0.6-0.8c-0.2-0.2-0.6-0.3-1.2-0.3c-0.5,0-0.9,0.1-1.2,0.3c-0.3,0.2-0.5,0.5-0.5,0.8c0,0.2,0.1,0.4,0.2,0.5
		c0.1,0.1,0.2,0.3,0.4,0.4c0.2,0.1,0.4,0.2,0.5,0.2c0.2,0.1,0.5,0.1,0.9,0.2c0.5,0.1,1,0.3,1.5,0.4c0.4,0.1,0.8,0.3,1.1,0.5
		c0.3,0.2,0.5,0.5,0.7,0.8C91.5,92.8,91.6,93.2,91.6,93.7L91.6,93.7z M124.5,117.1c0.6,0,1.4,0,2.2,0c2.1-0.1,1.9-2.9-0.1-2.9
		c-1.2,0-3.7,0.1-4.9,0.1C122.5,115.2,123.9,116.6,124.5,117.1z M115.2,87.9c2.8,0,8.7,0,11.5,0c2,0,2.1-1.2,2.1-1.7
		c0-0.9-0.8-1.7-2.1-1.7c-3.4,0-9,0-11.9,0C114.9,85.4,115.1,86.7,115.2,87.9z M127.2,102.6c2-0.1,2.1-3.1,0-3.1
		c-3.5,0-9.9-0.1-13.1-0.1c-0.2,1.1-0.5,2.3-0.9,3.2L127.2,102.6z M127.2,69.8c-3.7,0-20-0.1-21.8-0.1c1.1,0.8,2.4,2.2,3.2,3.2
		c6,0,12.2,0,18.4,0C129.4,72.9,128.9,69.9,127.2,69.8L127.2,69.8z M84.3,132.3l27.8-0.2c-0.7-0.7-2.1-2.4-2.7-3.1
		c-8-0.1-17-0.1-25-0.1C82.2,129,81.9,132.2,84.3,132.3L84.3,132.3z M108.5,122c0.6,0.6,0.7,0.3,1.3-0.2c1.9-1.6,4.3-4.2,6-6.2
		c0.8-0.9,0.5-0.8-0.3-1.7c-0.9-0.9-4.1-4.1-5-4.9c-0.5-0.4-0.7-0.6-0.9-0.2c-2.4,3.2-3.7,4.6-6.5,6.7c-0.5,0.5-0.6,0.4-0.1,1
		C103.7,117.1,107.8,121.3,108.5,122L108.5,122z M127.2,147c-0.8-0.8-2-2.1-2.9-3c-16.8,0-33.4-0.2-50.2-0.4c-1.1,0-1.6-0.3-1.9-0.8
		c-0.4-0.6-0.3-1.5-0.3-2.5c0-7,0.1-15.6,0-22.7c-0.9-0.5-2.4-1.3-3.2-1.8c0,2.1,0,21.9,0,25.4c0,2.7,1.4,5.5,6,5.5
		C92.1,147,109.7,147,127.2,147L127.2,147z M68.6,67.2c1.1-0.6,2.1-1.1,3.2-1.6c0-1.8,0-3.6,0-5.2c0-1.1,0.9-2.1,2.1-2.1
		c20.4,0,41.2,0,61.6-0.1c3.3,0,3.2,1.4,3.2,4c0,22.8,0,45.6-0.1,68.5c0.7,0.6,2.5,2.4,3.3,3.1c0-23.8,0-47.6,0-71.4
		c0.2-5.4-1.6-7.2-6.5-7.2c-11.9,0-54.2-0.1-61.8,0c-1.5,0-3.1,0.9-4.1,2.5c-0.6,0.9-0.9,2.2-0.9,3.5C68.6,63.1,68.6,65.5,68.6,67.2
		L68.6,67.2z M117.8,116.2c-2.5,3-4.5,5.2-7.8,8c-2,1.8-0.2,2.9,4.2,7.4c5.7,5.7,11.4,11.5,17.1,17.2c1.2,1.2,2.5,1.5,4.3,0.6
		c2.6-1.4,6.1-4.7,7.5-7.6c1.5-3,0.3-4.1-1.9-6.1c-0.6-0.6-17.5-17.5-19.2-19.1C120.8,115.2,119.6,114.4,117.8,116.2L117.8,116.2z
		 M87,119.4c29.9-1.2,37.7-45.4,6.8-54.2c-25.6-7.3-44.9,20-31.7,41.2C67.7,115.5,77.7,119.8,87,119.4L87,119.4z"/>
</g>
</svg>
